solid blade_box_lid
  facet normal 0.000000 0.000000 -1.000000
    outer loop
      vertex 0.000000 0.000000 0.000000
      vertex 0.000000 22.000000 0.000000
      vertex 113.000000 22.000000 0.000000
    endloop
  endfacet
  facet normal 0.000000 0.000000 -1.000000
    outer loop
      vertex 0.000000 0.000000 0.000000
      vertex 113.000000 22.000000 0.000000
      vertex 113.000000 0.000000 0.000000
    endloop
  endfacet
  facet normal 0.000000 0.000000 1.000000
    outer loop
      vertex 0.000000 0.000000 2.000000
      vertex 113.000000 0.000000 2.000000
      vertex 113.000000 22.000000 2.000000
    endloop
  endfacet
  facet normal 0.000000 0.000000 1.000000
    outer loop
      vertex 0.000000 0.000000 2.000000
      vertex 113.000000 22.000000 2.000000
      vertex 0.000000 22.000000 2.000000
    endloop
  endfacet
  facet normal 0.000000 -1.000000 0.000000
    outer loop
      vertex 0.000000 0.000000 0.000000
      vertex 113.000000 0.000000 0.000000
      vertex 113.000000 0.000000 2.000000
    endloop
  endfacet
  facet normal 0.000000 -1.000000 0.000000
    outer loop
      vertex 0.000000 0.000000 0.000000
      vertex 113.000000 0.000000 2.000000
      vertex 0.000000 0.000000 2.000000
    endloop
  endfacet
  facet normal 0.000000 1.000000 0.000000
    outer loop
      vertex 0.000000 22.000000 0.000000
      vertex 0.000000 22.000000 2.000000
      vertex 113.000000 22.000000 2.000000
    endloop
  endfacet
  facet normal 0.000000 1.000000 0.000000
    outer loop
      vertex 0.000000 22.000000 0.000000
      vertex 113.000000 22.000000 2.000000
      vertex 113.000000 22.000000 0.000000
    endloop
  endfacet
  facet normal -1.000000 0.000000 0.000000
    outer loop
      vertex 0.000000 0.000000 0.000000
      vertex 0.000000 0.000000 2.000000
      vertex 0.000000 22.000000 2.000000
    endloop
  endfacet
  facet normal -1.000000 0.000000 0.000000
    outer loop
      vertex 0.000000 0.000000 0.000000
      vertex 0.000000 22.000000 2.000000
      vertex 0.000000 22.000000 0.000000
    endloop
  endfacet
  facet normal 1.000000 0.000000 0.000000
    outer loop
      vertex 113.000000 0.000000 0.000000
      vertex 113.000000 22.000000 0.000000
      vertex 113.000000 22.000000 2.000000
    endloop
  endfacet
  facet normal 1.000000 0.000000 0.000000
    outer loop
      vertex 113.000000 0.000000 0.000000
      vertex 113.000000 22.000000 2.000000
      vertex 113.000000 0.000000 2.000000
    endloop
  endfacet
endsolid blade_box_lid
